<svg width="105" height="40" viewBox="0 0 105 40" fill="none" xmlns="http://www.w3.org/2000/svg">
<path d="M23.9444 24.4091V28.0835H25.4329C26.4668 28.0835 27.2255 27.9635 27.6942 27.7186C28.1487 27.4735 28.3755 27.0027 28.3755 26.2968C28.3755 25.8406 28.2549 25.4515 28.0083 25.1297C27.7715 24.8223 27.4576 24.6254 27.0613 24.5388C26.6793 24.4524 26.0415 24.4091 25.133 24.4091H23.9444ZM25.9255 39.6926H14.4146V35.0048H16.3283V24.808H14.4146V20.12H26.4958C29.2697 20.12 31.2994 20.3891 32.5798 20.9222C33.8653 21.4649 34.8077 22.2093 35.4116 23.1461C36.0159 24.0826 36.32 25.1105 36.32 26.2247C36.32 27.608 35.9626 28.7513 35.2426 29.659C34.5274 30.5812 33.5754 31.244 32.3963 31.6569C31.2366 32.0606 29.4437 32.2622 27.0177 32.2622H23.9444V35.0048H25.9255V39.6926ZM45.1057 25.0864L43.25 30.5044H46.7776L45.1057 25.0864ZM43.25 39.6926H35.4502V35.0096H36.9534L40.6451 24.808H39.0602V20.12H53.2194V24.808H51.6343L55.3988 35.0096H56.8439V39.6926H46.5651V35.4035H48.2901L47.5412 32.9395H42.501L41.6359 35.4035H43.25V39.6926ZM73.4963 31.0663L78.6091 32.8531C78.1742 34.9422 77.1788 36.657 75.6226 37.9876C74.0472 39.3275 71.8726 40.0001 69.1085 40.0001C65.3342 40.0001 62.5411 39.0202 60.7241 37.0606C58.9022 35.1057 57.9938 32.7234 57.9938 29.9134C57.9938 27.0796 58.8877 24.6733 60.671 22.6946C62.4542 20.7157 64.769 19.7263 67.6202 19.7263C69.9348 19.7263 71.8193 20.293 73.2692 21.4313V20.12H78.0005V27.267H73.0857C72.8344 26.3785 72.4041 25.6724 71.8003 25.1585C71.1962 24.6542 70.505 24.3996 69.7318 24.3996C67.596 24.3996 66.5328 26.2247 66.5328 29.8704C66.5328 33.5255 67.6345 35.3554 69.8429 35.3554C71.7807 35.3554 72.9986 33.9241 73.4963 31.0663ZM104.081 39.6926H93.8895V35.0048H94.8368L90.5163 29.4332L95.5277 24.808H93.9283V20.12H103.627V24.808H102.1L98.0793 28.5207L103.105 35.0048H104.081V39.6926ZM91.8357 39.6926H81.1607V35.0048H82.6586V24.808H81.1171V20.12H91.8357V24.808H90.2797V35.0048H91.8357V39.6926Z" fill="#373435"/>
<path fill-rule="evenodd" clip-rule="evenodd" d="M0 0H88.6443L102.395 17.4322H13.7504L0 0Z" fill="#00AFEF"/>
<path fill-rule="evenodd" clip-rule="evenodd" d="M85.1093 0.576416C86.5947 0.576416 87.7993 1.66041 87.7993 2.99687C87.7993 4.33354 86.5947 5.41748 85.1093 5.41748C83.624 5.41748 82.4194 4.33354 82.4194 2.99687C82.4194 1.66041 83.624 0.576416 85.1093 0.576416Z" fill="#FEFEFE"/>
<path d="M84.0186 4.22886V1.76685H85.1816C85.4741 1.76685 85.6864 1.78915 85.8188 1.83333C85.9512 1.87752 86.0576 1.95586 86.1373 2.0689C86.2171 2.1824 86.2565 2.31144 86.2565 2.45696C86.2565 2.64167 86.196 2.79454 86.0753 2.91492C85.9551 3.03488 85.7742 3.11112 85.5339 3.14208C85.6539 3.20506 85.7525 3.27396 85.8303 3.34884C85.9078 3.42399 86.0123 3.55696 86.1442 3.7486L86.4788 4.22886H85.8182L85.4186 3.69293C85.2767 3.50149 85.1799 3.38111 85.1276 3.3311C85.0755 3.2813 85.02 3.24751 84.9613 3.22846C84.9028 3.21025 84.8105 3.20096 84.6829 3.20096H84.5715V4.22886H84.0186ZM84.5715 2.80776H84.9799C85.2446 2.80776 85.4106 2.798 85.4767 2.77806C85.5423 2.75796 85.5939 2.72285 85.6314 2.67368C85.6685 2.62436 85.6875 2.56306 85.6875 2.48902C85.6875 2.40585 85.6628 2.33936 85.6137 2.28851C85.5647 2.2374 85.4954 2.20534 85.4052 2.19148C85.3608 2.1865 85.2265 2.18345 85.0022 2.18345H84.5715V2.80776Z" fill="#00AFEF" stroke="#00AFEF" stroke-width="0.288" stroke-miterlimit="22.9256"/>
<path d="M6.87695 2.3042H12.6954L28.7062 10.6726L20.2833 2.3042H26.1533L41.3791 17.4315H35.5091L19.6001 9.12655L27.9591 17.4315H22.103L6.87695 2.3042ZM30.2781 2.3042H46.9642L50.2152 5.53399H39.7698L42.191 7.93949H51.8807L54.9863 11.0249H45.2964L48.2956 14.0046H59.0459L62.4952 17.4315H45.5039L30.2781 2.3042ZM48.5454 2.3042H54.4579L65.0929 10.7536L59.6946 2.3042H65.5929L77.2179 10.7536L70.844 2.3042H76.728L87.5149 17.4315H81.4103L68.2913 7.9079L74.3576 17.4315H68.2527L48.5454 2.3042Z" fill="#FEFEFE"/>
<path d="M12.6975 2.67505H6.87905L6.87464 1.93335H12.693L12.9136 1.98661L12.6975 2.67505ZM12.693 1.93335H12.8117L12.9136 1.98661L12.693 1.93335ZM28.4878 10.9902L12.4769 2.62178L12.9136 1.98661L28.9244 10.355L29.0264 10.4292L28.4878 10.9902ZM29.0264 10.4292L30.8158 12.2069L28.4878 10.9902L29.0264 10.4292ZM20.6035 2.06076L29.0264 10.4292L28.3858 10.916L19.9629 2.54763L20.281 1.93335L20.6035 2.06076ZM19.9629 2.54763L19.3446 1.93335H20.281L19.9629 2.54763ZM26.1554 2.67505H20.2854L20.281 1.93335H26.151L26.4735 2.06076L26.1554 2.67505ZM26.151 1.93335H26.3452L26.4735 2.06076L26.151 1.93335ZM41.0587 17.6749L25.8329 2.54763L26.4735 2.06076L41.6993 17.1881L41.3812 17.8024L41.0587 17.6749ZM41.6993 17.1881L42.3176 17.8024H41.3812L41.6993 17.1881ZM35.5068 17.0607H41.3768L41.3812 17.8024H35.5112L35.2909 17.7492L35.5068 17.0607ZM35.5112 17.8024H35.3927L35.2909 17.7492L35.5112 17.8024ZM19.8181 8.80886L35.7271 17.1138L35.2909 17.7492L19.3819 9.44424L19.2797 9.36999L19.8181 8.80886ZM19.2797 9.36999L17.4936 7.59535L19.8181 8.80886L19.2797 9.36999ZM27.6387 17.6749L19.2797 9.36999L19.9203 8.88312L28.2793 17.1881L27.9612 17.8024L27.6387 17.6749ZM28.2793 17.1881L28.8976 17.8024H27.9612L28.2793 17.1881ZM22.1007 17.0607H27.9568L27.9612 17.8024H22.1051L21.7826 17.6749L22.1007 17.0607ZM22.1051 17.8024H21.9108L21.7826 17.6749L22.1051 17.8024ZM7.19713 2.06076L22.4232 17.1881L21.7826 17.6749L6.55655 2.54763L6.87464 1.93335L7.19713 2.06076ZM6.55655 2.54763L5.93823 1.93335H6.87464L6.55655 2.54763ZM46.9663 2.67505H30.2802L30.2758 1.93335H46.9619L47.2844 2.06076L46.9663 2.67505ZM46.9619 1.93335H47.1561L47.2844 2.06076L46.9619 1.93335ZM49.8948 5.77743L46.6438 2.54763L47.2844 2.06076L50.5354 5.29056L50.2173 5.90484L49.8948 5.77743ZM50.5354 5.29056L51.1537 5.90484H50.2173L50.5354 5.29056ZM39.7674 5.16314H50.2129L50.2173 5.90484H39.7719L39.4494 5.77743L39.7674 5.16314ZM39.4494 5.77743L38.8311 5.16314H39.7674L39.4494 5.77743ZM41.8706 8.18293L39.4494 5.77743L40.0899 5.29056L42.5111 7.69606L42.193 8.31034L41.8706 8.18293ZM42.193 8.31034H41.9988L41.8706 8.18293L42.193 8.31034ZM51.8828 8.31034H42.193L42.1886 7.56864H51.8784L52.2009 7.69606L51.8828 8.31034ZM51.8784 7.56864H52.0726L52.2009 7.69606L51.8784 7.56864ZM54.6659 11.2684L51.5603 8.18293L52.2009 7.69606L55.3065 10.7815L54.9884 11.3958L54.6659 11.2684ZM55.3065 10.7815L55.9248 11.3958H54.9884L55.3065 10.7815ZM45.294 10.6541H54.984L54.9884 11.3958H45.2984L44.976 11.2684L45.294 10.6541ZM44.976 11.2684L44.3576 10.6541H45.294L44.976 11.2684ZM47.9752 14.2481L44.976 11.2684L45.6165 10.7815L48.6158 13.7612L48.2977 14.3755L47.9752 14.2481ZM48.2977 14.3755H48.1035L47.9752 14.2481L48.2977 14.3755ZM59.048 14.3755H48.2977L48.2933 13.6338H59.0436L59.3661 13.7612L59.048 14.3755ZM59.0436 13.6338H59.2378L59.3661 13.7612L59.0436 13.6338ZM62.1748 17.6749L58.7255 14.2481L59.3661 13.7612L62.8153 17.1881L62.4972 17.8024L62.1748 17.6749ZM62.8153 17.1881L63.4336 17.8024H62.4972L62.8153 17.1881ZM45.5016 17.0607H62.4928L62.4972 17.8024H45.506L45.1835 17.6749L45.5016 17.0607ZM45.506 17.8024H45.3117L45.1835 17.6749L45.506 17.8024ZM30.5983 2.06076L45.8241 17.1881L45.1835 17.6749L29.9577 2.54763L30.2758 1.93335L30.5983 2.06076ZM29.9577 2.54763L29.3394 1.93335H30.2758L29.9577 2.54763ZM54.46 2.67505H48.5475L48.5431 1.93335H54.4555L54.7445 2.03101L54.46 2.67505ZM54.4555 1.93335H54.6216L54.7445 2.03101L54.4555 1.93335ZM64.806 11.0268L54.171 2.57739L54.7445 2.03101L65.3796 10.4804L65.4653 10.5747L64.806 11.0268ZM65.4653 10.5747L66.7315 12.5565L64.806 11.0268L65.4653 10.5747ZM60.067 2.12536L65.4653 10.5747L64.7203 10.9324L59.322 2.48304L59.6923 1.93335L60.067 2.12536ZM59.322 2.48304L58.9707 1.93335H59.6923L59.322 2.48304ZM65.595 2.67505H59.6967L59.6923 1.93335H65.5906L65.8653 2.02015L65.595 2.67505ZM65.5906 1.93335H65.7459L65.8653 2.02015L65.5906 1.93335ZM76.9453 11.0376L65.3203 2.58825L65.8653 2.02015L77.4903 10.4695L77.574 10.5513L76.9453 11.0376ZM77.574 10.5513L79.1495 12.6397L76.9453 11.0376L77.574 10.5513ZM71.2001 2.1019L77.574 10.5513L76.8615 10.9559L70.4876 2.50649L70.8416 1.93335L71.2001 2.1019ZM70.4876 2.50649L70.0553 1.93335H70.8416L70.4876 2.50649ZM76.7301 2.67505H70.8461L70.8416 1.93335H76.7257L77.09 2.10993L76.7301 2.67505ZM76.7257 1.93335H76.9641L77.09 2.10993L76.7257 1.93335ZM87.1527 17.6258L76.3658 2.49846L77.09 2.10993L87.877 17.2372L87.517 17.8024L87.1527 17.6258ZM87.877 17.2372L88.2799 17.8024H87.517L87.877 17.2372ZM81.408 17.0607H87.5126L87.517 17.8024H81.4124L81.1379 17.7157L81.408 17.0607ZM81.4124 17.8024H81.2572L81.1379 17.7157L81.4124 17.8024ZM68.5634 7.62369L81.6825 17.1473L81.1379 17.7157L68.0188 8.19211L67.9183 8.08632L68.5634 7.62369ZM67.9183 8.08632L66.8153 6.35466L68.5634 7.62369L67.9183 8.08632ZM73.9846 17.6099L67.9183 8.08632L68.6639 7.72948L74.7302 17.2531L74.3596 17.8024L73.9846 17.6099ZM74.7302 17.2531L75.0801 17.8024H74.3596L74.7302 17.2531ZM68.2504 17.0607H74.3552L74.3596 17.8024H68.2548L67.9713 17.709L68.2504 17.0607ZM68.2548 17.8024H68.0929L67.9713 17.709L68.2548 17.8024ZM48.8266 2.0267L68.5339 17.154L67.9713 17.709L48.264 2.58169L48.5431 1.93335L48.8266 2.0267ZM48.264 2.58169L47.4194 1.93335H48.5431L48.264 2.58169Z" fill="#FEFEFE"/>
</svg>